<?xml version="1.0" encoding="UTF-8" standalone="no"?>
<svg width="100px" height="100px" viewBox="0 0 100 100" version="1.1" xmlns="http://www.w3.org/2000/svg" xmlns:xlink="http://www.w3.org/1999/xlink" xmlns:sketch="http://www.bohemiancoding.com/sketch/ns">
    <!-- Generator: Sketch Beta 3.4 (15575) - http://www.bohemiancoding.com/sketch -->
    <title>Path</title>
    <desc>Created with Sketch Beta.</desc>
    <defs>
        <linearGradient x1="50%" y1="0%" x2="50%" y2="100%" id="linearGradient-1">
            <stop stop-color="#7DA3D7" offset="0%"></stop>
            <stop stop-color="#8CCD9B" offset="100%"></stop>
        </linearGradient>
        <path d="M81.1717172,38 L75.763892,13.6647869 C74.0882737,6.12450425 67.1308321,0 60.2272727,0 C53.0894886,0 53.5111861,11.3636364 50,11.3636364 C46.4888139,11.3636364 47.0081676,0 38.6363636,0 C34.9631037,2.89185819e-16 38.6363636,0 38.6363636,0 C33.5447939,1.27566381e-16 25.9131865,6.11793347 24.236108,13.6647869 L18.8282828,38 L1.49121732,38 C0.665017776,38 0,38.6715729 0,39.5 C0,40.3342028 0.667640733,41 1.49121732,41 L98.5087827,41 C99.3349822,41 100,40.3284271 100,39.5 C100,38.6657972 99.3323593,38 98.5087827,38 L81.1717172,38 L81.1717172,38 L81.1717172,38 Z M21.9442276,38 L78.0718571,38 L72.8353309,14.3155782 C71.4527078,8.09377465 65.6627239,3 60.2272727,3 C58.7164557,3 57.7356586,4.02532119 56.5082228,6.8702605 C56.2969391,7.35997212 55.5824091,9.12979282 55.4463266,9.45132069 C54.0585174,12.7303556 52.7908946,14.3636364 50,14.3636364 C47.3946193,14.3636364 46.0939568,12.8485197 44.7753527,9.99491199 C44.6186854,9.65586616 43.7129823,7.55980357 43.4333396,6.97373284 C42.0730416,4.12284224 40.8257072,3 38.6363636,3 C34.6159912,3 28.4486283,8.53776206 27.1646691,14.3155782 L21.9442276,38 Z M81.8181818,44 L81.8181818,67.5374077 C81.8181818,74.1692688 78.0178151,83.3448606 73.0964124,87.7914112 C73.0964124,87.7914112 62.7974077,100 50,100 C37.2025923,100 26.8863489,87.7766844 26.8863489,87.7766844 C22.0789693,83.2307017 18.1818182,74.1708467 18.1818182,67.5374077 L18.1818182,44 L21.1818182,44 L21.1818182,67.5374077 C21.1818182,73.3460897 24.7394266,81.6175918 28.9475803,85.596931 L29.0701553,85.7128411 L29.1789626,85.8417626 C29.2330273,85.9058217 29.3626632,86.053323 29.5637729,86.2722146 C29.9136592,86.6530373 30.3271577,87.0816288 30.8000371,87.5459302 C32.160781,88.88199 33.711321,90.220889 35.4150034,91.4667588 C40.169673,94.9437561 45.1343324,97 50,97 C54.8660051,97 59.8273033,94.9464244 64.5765777,91.4739757 C66.2782254,90.2298099 67.8266135,88.8927516 69.185225,87.5585452 C69.6573465,87.0949044 70.0701414,86.6669321 70.4193949,86.2866724 C70.6201112,86.0681368 70.7494578,85.9209058 70.8033535,85.8570169 L70.9344005,85.701672 L71.0852018,85.5654211 C75.2795929,81.7757349 78.8181818,73.4593231 78.8181818,67.5374077 L78.8181818,44 L81.8181818,44 L81.8181818,44 Z M56.808,57.656 C56.808,65 47.4,64.712 47.4,71.816 C47.4,72.44 47.496,73.112 47.64,73.88 L49.896,73.784 C49.8,73.208 49.704,72.68 49.704,72.2 C49.704,65.672 59.448,66.056 59.448,57.128 C59.448,52.712 56.04,48.968 50.04,48.968 C46.104,48.968 42.648,50.984 40.92,53.768 L42.456,55.352 C44.28,52.856 46.824,51.464 49.848,51.464 C53.928,51.464 56.808,54.152 56.808,57.656 Z M46.824,81.176 C46.824,82.184 47.544,83.096 48.696,83.096 C49.704,83.096 50.472,82.184 50.472,81.176 C50.472,80.312 49.704,79.448 48.696,79.448 C47.544,79.448 46.824,80.312 46.824,81.176 Z" id="path-2"></path>
    </defs>
    <g id="Page-1" stroke="none" stroke-width="1" fill="none" fill-rule="evenodd" sketch:type="MSPage">
        <g id="main4" sketch:type="MSArtboardGroup" transform="translate(-220.000000, -1360.000000)">
            <g id="Group" sketch:type="MSLayerGroup" transform="translate(100.000000, 1270.000000)">
                <g transform="translate(0.000000, 20.000000)" id="Group-Copy">
                    <g transform="translate(120.000000, 70.000000)">
                        <g id="Path">
                            <use fill="none" sketch:type="MSShapeGroup" xlink:href="#path-2"></use>
                            <use fill="url(#linearGradient-1)" fill-rule="evenodd" xlink:href="#path-2"></use>
                        </g>
                    </g>
                </g>
            </g>
        </g>
    </g>
</svg>