<?xml version="1.0" encoding="UTF-8" standalone="no"?>
<svg width="95px" height="95px" viewBox="0 0 95 95" version="1.1" xmlns="http://www.w3.org/2000/svg" xmlns:xlink="http://www.w3.org/1999/xlink" xmlns:sketch="http://www.bohemiancoding.com/sketch/ns">
    <!-- Generator: Sketch Beta 3.4 (15575) - http://www.bohemiancoding.com/sketch -->
    <title>Path</title>
    <desc>Created with Sketch Beta.</desc>
    <defs>
        <linearGradient x1="50%" y1="0%" x2="50%" y2="100%" id="linearGradient-1">
            <stop stop-color="#7DA3D7" offset="0%"></stop>
            <stop stop-color="#8CCD9B" offset="100%"></stop>
        </linearGradient>
        <path d="M47.4951568,7.65299096e-06 C21.2617811,0.0147443631 0,21.3105157 0,47.5780578 C0,64.639008 8.9694787,79.6025708 22.444917,88 L22.444917,88 L13.4930964,88 C12.6638858,88 12,88.6715729 12,89.5 C12,90.3342028 12.668482,91 13.4930964,91 L25.5069036,91 C25.9203587,91 26.2927115,90.8330371 26.5650641,90.5604438 C26.8344678,90.2904252 27,89.9180734 27,89.5069036 L27,77.4930964 C27,76.6638858 26.3284271,76 25.5,76 C24.6657972,76 24,76.668482 24,77.4930964 L24,85.4659859 C11.3735965,77.5919617 2.97015026,63.567524 2.97015026,47.5780578 C2.97015026,23.0434663 22.7556559,3.1354392 47.2237207,2.97460998 C47.3132704,2.99128294 47.4056172,3 47.5,3 C47.5948806,3 47.6877037,2.99119074 47.777696,2.9743455 C47.8593963,2.97480445 47.9410444,2.97548357 48.02264,2.97638229 L48.02264,2.90643846 C48.5933796,2.69426441 49,2.14461785 49,1.5 C49,0.855382153 48.5933796,0.305735593 48.02264,0.0935615381 L48.02264,0.0025814381 C47.8560986,0.000861879989 47.6893519,0 47.5224042,0 C47.5160629,0 47.509722,1.24345591e-06 47.5033814,3.73013744e-06 C47.5022545,1.2438116e-06 47.5011274,0 47.5,0 C47.498385,0 47.4967706,2.55226814e-06 47.4951568,7.65299096e-06 Z M47.5048432,94.9999923 C73.7382189,94.9852556 95,73.6894843 95,47.4219422 C95,30.360992 86.0305213,15.3974292 72.555083,7 L72.555083,7 L81.5069036,7 C82.3361142,7 83,6.32842712 83,5.5 C83,4.66579723 82.331518,4 81.5069036,4 L69.4930964,4 C69.0796413,4 68.7072885,4.16696294 68.4349359,4.43955623 C68.1655322,4.7095748 68,5.08192656 68,5.49309635 L68,17.5069036 C68,18.3361142 68.6715729,19 69.5,19 C70.3342028,19 71,18.331518 71,17.5069036 L71,9.53401414 C83.6264035,17.4080383 92.0298497,31.432476 92.0298497,47.4219422 C92.0298497,71.9565337 72.2443441,91.8645608 47.7762793,92.02539 C47.6867296,92.0087171 47.5943828,92 47.5,92 C47.4051194,92 47.3122963,92.0088093 47.222304,92.0256545 C47.1406037,92.0251955 47.0589556,92.0245164 46.97736,92.0236177 L46.97736,92.0935615 C46.4066204,92.3057356 46,92.8553822 46,93.5 C46,94.1446178 46.4066204,94.6942644 46.97736,94.9064385 L46.97736,94.9974186 C47.1439014,94.9991381 47.3106481,95 47.4775958,95 C47.4839371,95 47.490278,94.9999988 47.4966186,94.9999963 C47.4977455,94.9999988 47.4988726,95 47.5,95 C47.501615,95 47.5032294,94.9999974 47.5048432,94.9999923 Z M47.5,69 C59.3741221,69 69,59.3741221 69,47.5 C69,35.6258779 59.3741221,26 47.5,26 C35.6258779,26 26,35.6258779 26,47.5 C26,59.3741221 35.6258779,69 47.5,69 Z M51.32,51.704 C51.32,53.408 49.904,54.32 48.152,54.32 C46.736,54.32 44.984,53.624 44,52.328 L42.824,53.72 C43.544,55.088 45.44,55.976 47.288,56.192 L47.288,58.4 L49.208,58.4 L49.208,56.144 C51.704,55.784 53.48,54.104 53.48,51.68 C53.48,45.944 45.272,47.504 45.272,43.352 C45.272,41.864 46.4,40.88 48.416,40.88 C49.88,40.88 50.936,41.36 51.824,42.248 L52.928,40.712 C52.112,39.824 50.768,39.2 49.208,39.008 L49.208,37.04 L47.288,37.04 L47.288,39.032 C44.672,39.416 43.112,41.192 43.112,43.352 C43.112,48.92 51.32,47.6 51.32,51.704 Z" id="path-2"></path>
    </defs>
    <g id="Page-1" stroke="none" stroke-width="1" fill="none" fill-rule="evenodd" sketch:type="MSPage">
        <g id="main4" sketch:type="MSArtboardGroup" transform="translate(-632.000000, -1365.000000)">
            <g id="Group" sketch:type="MSLayerGroup" transform="translate(100.000000, 1270.000000)">
                <g id="Shape-+-Path" transform="translate(532.000000, 95.000000)">
                    <g id="Path">
                        <use fill="none" sketch:type="MSShapeGroup" xlink:href="#path-2"></use>
                        <use fill="url(#linearGradient-1)" fill-rule="evenodd" xlink:href="#path-2"></use>
                    </g>
                </g>
            </g>
        </g>
    </g>
</svg>