<?xml version="1.0" encoding="UTF-8" standalone="no"?>
<svg width="80px" height="100px" viewBox="0 0 80 100" version="1.1" xmlns="http://www.w3.org/2000/svg" xmlns:xlink="http://www.w3.org/1999/xlink" xmlns:sketch="http://www.bohemiancoding.com/sketch/ns">
    <!-- Generator: Sketch Beta 3.4 (15575) - http://www.bohemiancoding.com/sketch -->
    <title>Shape</title>
    <desc>Created with Sketch Beta.</desc>
    <defs>
        <linearGradient x1="50%" y1="0%" x2="50%" y2="100%" id="linearGradient-1">
            <stop stop-color="#7DA3D7" offset="0%"></stop>
            <stop stop-color="#8CCD9B" offset="100%"></stop>
        </linearGradient>
        <path d="M3,47.0093184 L3,47.0093184 L3,93.9906816 C3,95.65528 4.34219698,97 5.99663433,97 L74.0033657,97 C75.6570361,97 77,95.6541698 77,93.9906816 L77,47.0093184 C77,45.34472 75.657803,44 74.0033657,44 L5.99663433,44 C4.34296385,44 3,45.3458302 3,47.0093184 L3,47.0093184 L3,47.0093184 Z M0,47.0093184 C0,43.6904635 2.68461881,41 5.99663433,41 L74.0033657,41 C77.3152154,41 80,43.6884199 80,47.0093184 L80,93.9906816 C80,97.3095365 77.3153812,100 74.0033657,100 L5.99663433,100 C2.68478464,100 0,97.3115801 0,93.9906816 L0,47.0093184 L0,47.0093184 Z M9,52 C10.1045695,52 11,51.1045695 11,50 C11,48.8954305 10.1045695,48 9,48 C7.8954305,48 7,48.8954305 7,50 C7,51.1045695 7.8954305,52 9,52 L9,52 Z M71,52 C72.1045695,52 73,51.1045695 73,50 C73,48.8954305 72.1045695,48 71,48 C69.8954305,48 69,48.8954305 69,50 C69,51.1045695 69.8954305,52 71,52 L71,52 Z M9,93 C10.1045695,93 11,92.1045695 11,91 C11,89.8954305 10.1045695,89 9,89 C7.8954305,89 7,89.8954305 7,91 C7,92.1045695 7.8954305,93 9,93 L9,93 Z M71,93 C72.1045695,93 73,92.1045695 73,91 C73,89.8954305 72.1045695,89 71,89 C69.8954305,89 69,89.8954305 69,91 C69,92.1045695 69.8954305,93 71,93 L71,93 Z M7.05961011,31 C8.09346725,13.7058799 22.4461437,0 40,0 C57.5538563,0 71.9065327,13.7058799 72.9403899,31 L69.9343909,31 C68.9052187,15.3639364 55.8964854,3 40,3 C24.1035146,3 11.0947813,15.3639364 10.0656091,31 L7.05961011,31 L7.05961011,31 L7.05961011,31 Z M70,31 L73,31 L73,41 L70,41 L70,31 L70,31 Z M7,31 L10,31 L10,41 L7,41 L7,31 L7,31 Z M15,31 C16.0220975,18.1279968 26.824547,8 40,8 C53.175453,8 63.9779025,18.1279968 65,31 L61.9796244,31 C60.9659704,19.787 51.5123882,11 40,11 C28.4876118,11 19.0340296,19.787 18.0203756,31 L15,31 L15,31 L15,31 Z M15,31 L18,31 L18,41 L15,41 L15,31 L15,31 Z M62,31 L65,31 L65,41 L62,41 L62,31 Z M25.315,76.735 C25.315,79.22 23.075,80.55 20.52,80.55 C18.455,80.55 15.9,79.535 14.465,77.645 L12.75,79.675 C13.975,81.985 17.475,83.35 20.485,83.35 C24.93,83.35 28.465,80.725 28.465,76.7 C28.465,68.335 16.495,70.61 16.495,64.555 C16.495,62.385 18.175,60.95 20.905,60.95 C23.04,60.95 24.58,61.65 25.875,62.945 L27.485,60.705 C26.085,59.165 23.565,58.15 20.73,58.15 C16.075,58.15 13.345,61.02 13.345,64.555 C13.345,72.675 25.315,70.75 25.315,76.735 Z M44.53,76.735 C44.53,79.22 42.29,80.55 39.735,80.55 C37.67,80.55 35.115,79.535 33.68,77.645 L31.965,79.675 C33.19,81.985 36.69,83.35 39.7,83.35 C44.145,83.35 47.68,80.725 47.68,76.7 C47.68,68.335 35.71,70.61 35.71,64.555 C35.71,62.385 37.39,60.95 40.12,60.95 C42.255,60.95 43.795,61.65 45.09,62.945 L46.7,60.705 C45.3,59.165 42.78,58.15 39.945,58.15 C35.29,58.15 32.56,61.02 32.56,64.555 C32.56,72.675 44.53,70.75 44.53,76.735 Z M53.105,83 L68.155,83 L68.155,80.2 L56.08,80.2 L56.08,58.5 L53.105,58.5 L53.105,83 Z" id="path-2"></path>
    </defs>
    <g id="Page-1" stroke="none" stroke-width="1" fill="none" fill-rule="evenodd" sketch:type="MSPage">
        <g id="main4" sketch:type="MSArtboardGroup" transform="translate(-1050.000000, -1360.000000)">
            <g id="Group" sketch:type="MSLayerGroup" transform="translate(100.000000, 1270.000000)">
                <g id="Group-Copy-13" transform="translate(820.000000, 20.000000)">
                    <g id="Oval-9-+-Rectangle-46" transform="translate(130.000000, 70.000000)">
                        <g id="Shape">
                            <use fill="none" sketch:type="MSShapeGroup" xlink:href="#path-2"></use>
                            <use fill="url(#linearGradient-1)" fill-rule="evenodd" xlink:href="#path-2"></use>
                        </g>
                    </g>
                </g>
            </g>
        </g>
    </g>
</svg>