<?xml version="1.0" encoding="UTF-8" standalone="no"?>
<svg width="147px" height="49px" viewBox="0 0 147 49" version="1.1" xmlns="http://www.w3.org/2000/svg" xmlns:xlink="http://www.w3.org/1999/xlink" xmlns:sketch="http://www.bohemiancoding.com/sketch/ns">
    <!-- Generator: Sketch Beta 3.4 (15575) - http://www.bohemiancoding.com/sketch -->
    <title>crypto + Rectangle 903 + BTC</title>
    <desc>Created with Sketch Beta.</desc>
    <defs>
        <filter x="-50%" y="-50%" width="200%" height="200%" filterUnits="objectBoundingBox" id="filter-1">
            <feOffset dx="0" dy="1" in="SourceAlpha" result="shadowOffsetOuter1"></feOffset>
            <feGaussianBlur stdDeviation="1" in="shadowOffsetOuter1" result="shadowBlurOuter1"></feGaussianBlur>
            <feColorMatrix values="0 0 0 0 0   0 0 0 0 0   0 0 0 0 0  0 0 0 0.0907297328 0" in="shadowBlurOuter1" type="matrix" result="shadowMatrixOuter1"></feColorMatrix>
            <feMerge>
                <feMergeNode in="shadowMatrixOuter1"></feMergeNode>
                <feMergeNode in="SourceGraphic"></feMergeNode>
            </feMerge>
        </filter>
        <filter x="-50%" y="-50%" width="200%" height="200%" filterUnits="objectBoundingBox" id="filter-2">
            <feOffset dx="0" dy="1" in="SourceAlpha" result="shadowOffsetOuter1"></feOffset>
            <feGaussianBlur stdDeviation="1" in="shadowOffsetOuter1" result="shadowBlurOuter1"></feGaussianBlur>
            <feColorMatrix values="0 0 0 0 0   0 0 0 0 0   0 0 0 0 0  0 0 0 0.122710032 0" in="shadowBlurOuter1" type="matrix" result="shadowMatrixOuter1"></feColorMatrix>
            <feMerge>
                <feMergeNode in="shadowMatrixOuter1"></feMergeNode>
                <feMergeNode in="SourceGraphic"></feMergeNode>
            </feMerge>
        </filter>
        <filter x="-50%" y="-50%" width="200%" height="200%" filterUnits="objectBoundingBox" id="filter-3">
            <feOffset dx="0" dy="1" in="SourceAlpha" result="shadowOffsetOuter1"></feOffset>
            <feGaussianBlur stdDeviation="0.5" in="shadowOffsetOuter1" result="shadowBlurOuter1"></feGaussianBlur>
            <feColorMatrix values="0 0 0 0 0   0 0 0 0 0   0 0 0 0 0  0 0 0 0.106799139 0" in="shadowBlurOuter1" type="matrix" result="shadowMatrixOuter1"></feColorMatrix>
            <feMerge>
                <feMergeNode in="shadowMatrixOuter1"></feMergeNode>
                <feMergeNode in="SourceGraphic"></feMergeNode>
            </feMerge>
        </filter>
    </defs>
    <g id="Page-1" stroke="none" stroke-width="1" fill="none" fill-rule="evenodd" sketch:type="MSPage">
        <g id="main4" sketch:type="MSArtboardGroup" transform="translate(-102.000000, -21.000000)">
            <g id="crypto-+-Rectangle-903-+-BTC" sketch:type="MSLayerGroup" transform="translate(103.000000, 22.000000)">
                <path d="M15.1039158,33.0807169 C13.6438428,33.6797213 12.146332,33.9792234 10.6862589,33.9792234 C8.88924596,33.9792234 7.61636178,33.567408 6.8301686,32.7812148 C6.0814132,31.9575838 5.7070355,30.3477597 5.7070355,27.9517424 C5.89422435,22.6730168 7.12967076,21.9242614 10.6862589,21.9242614 C12.146332,21.9242614 13.6438428,22.1863258 15.1039158,22.7478924 L16.1521734,18.7794887 C14.5423493,18.1804844 12.5955852,17.8809823 10.349319,17.8809823 C7.24198407,17.8809823 4.92084232,18.6297377 3.31101821,20.1272485 C1.70119409,21.5873215 0.915000916,24.1705276 0.915000916,27.8768669 C0.915000916,31.5832061 1.70119409,34.2038501 3.31101821,35.7387986 C4.92084232,37.2737472 7.24198407,38.0225026 10.349319,38.0225026 C12.5955852,38.0225026 14.5423493,37.6855627 16.1521734,37.0491206 L15.1039158,33.0807169 Z M29.8637567,17.8809823 C27.4677394,17.8809823 25.8579153,18.5548621 24.9968466,19.8651841 L24.9968466,18.4425488 L20.3545631,18.4425488 L20.3545631,37.4983738 L24.9968466,37.4983738 L24.9968466,24.282841 C24.9968466,22.9350812 26.9436106,22.1488881 29.3770657,22.1488881 C30.2006966,22.1488881 31.0243276,22.2237636 31.8105207,22.4109525 L31.8105207,17.9932956 C31.1366409,17.91842 30.5001988,17.8809823 29.8637567,17.8809823 Z M48.5639229,18.4425488 C47.5531031,22.4483902 45.9807168,27.2404248 43.8467639,32.8935281 C42.3866908,27.5024892 40.8143045,22.6730168 39.1296048,18.4425488 L34.3001325,18.4425488 C36.7335875,24.3202787 38.9798537,30.9842018 41.0389311,38.4343181 C39.8783602,40.9426487 38.8675404,43.0391638 37.9315962,44.6864257 L43.0980085,44.6864257 C46.9540988,37.0865584 50.3609359,28.3261201 53.2810819,18.4425488 L48.5639229,18.4425488 Z M65.2237306,38.0225026 C67.9566878,38.0225026 70.0157652,37.2737472 71.4009627,35.7762364 C72.7861602,34.2412878 73.4974778,31.6580817 73.4974778,27.9517424 C73.4974778,24.1705276 72.7861602,21.5498837 71.3635249,20.0898107 C69.9408897,18.6297377 67.6197479,17.8809823 64.3626619,17.8809823 C61.0681381,17.8809823 58.2977431,18.3676733 56.0140392,19.3036175 L56.0140392,44.6864257 L60.6563227,44.6864257 L60.6563227,36.9368073 C62.1163957,37.6481249 63.6139065,38.0225026 65.2237306,38.0225026 L65.2237306,38.0225026 Z M64.3626619,21.8868237 C66.0473616,21.8868237 67.2079324,22.2986391 67.8069368,23.0848323 C68.4433789,23.8710255 68.742881,25.5182874 68.742881,28.0640557 C68.742881,30.3851975 68.4433789,31.9575838 67.8069368,32.8186526 C67.1704947,33.6797213 66.0473616,34.0915367 64.4000997,34.0915367 C62.3035846,34.0915367 60.6563227,33.3427813 60.6563227,32.257086 L60.6563227,22.4483902 C61.6297047,22.0740125 62.8651511,21.8868237 64.3626619,21.8868237 L64.3626619,21.8868237 Z M89.9700967,18.4425488 L83.6431135,18.4425488 L83.6431135,13.3135743 L79.00083,15.2229006 L79.00083,18.4425488 L75.8186196,18.4425488 L75.8186196,22.485828 L79.00083,22.485828 L79.00083,31.0965151 C79.00083,33.7920346 79.4875211,35.6264853 80.4983409,36.5998673 C81.5091606,37.5358116 83.1189848,38.0225026 85.365251,38.0225026 C87.2745773,38.0225026 88.9967147,37.7230004 90.6065388,37.1614339 L89.7829079,33.4925324 C88.6972125,33.8294724 87.6115172,34.0166612 86.5258219,34.0166612 C84.4667445,34.0166612 83.6431135,32.9309659 83.6431135,30.6846997 L83.6431135,22.485828 L89.9700967,22.485828 L89.9700967,18.4425488 Z M101.950183,38.0225026 C105.132394,38.0225026 107.453535,37.2737472 108.913608,35.8136742 C110.373681,34.3161634 111.084999,31.6580817 111.084999,27.8768669 C111.084999,24.1330899 110.373681,21.5498837 108.913608,20.0898107 C107.453535,18.6297377 105.132394,17.8809823 101.950183,17.8809823 C98.8054105,17.8809823 96.5217065,18.6297377 95.0616335,20.0898107 C93.6015604,21.5498837 92.8902428,24.1330899 92.8902428,27.8768669 C92.8902428,31.6580817 93.6015604,34.3161634 95.0241957,35.8136742 C96.4842687,37.2737472 98.7679727,38.0225026 101.950183,38.0225026 L101.950183,38.0225026 Z M101.950183,21.6247593 C105.431896,21.6996348 106.180651,22.4109525 106.292965,27.9517424 C106.292965,30.5349486 105.993462,32.2196482 105.394458,33.0432792 C104.795454,33.8669101 103.634883,34.2787256 101.950183,34.2787256 C100.265484,34.2787256 99.1423504,33.8669101 98.5433461,33.0432792 C97.9817795,32.2196482 97.6822774,30.5349486 97.6822774,27.9517424 C97.6822774,25.2936608 97.9817795,23.6089611 98.5433461,22.8227679 C99.1049126,22.0365747 100.265484,21.6247593 101.950183,21.6247593 L101.950183,21.6247593 Z" id="crypto" fill="#FFFFFF" filter="url(#filter-1)" sketch:type="MSShapeGroup"></path>
                <rect id="Rectangle-903" fill="#EB5A63" filter="url(#filter-2)" sketch:type="MSShapeGroup" x="112" y="0" width="32" height="18" rx="3"></rect>
                <text id="BTC" fill="white" filter="url(#filter-3)" sketch:type="MSTextLayer" font-family="DIN Alternate" font-size="14" font-weight="bold" letter-spacing="1">
                    <tspan x="115" y="14" fill="#FFFFFF">BT</tspan>
                    <tspan x="132.538086" y="14" fill="#FFFFFF">C</tspan>
                </text>
            </g>
        </g>
    </g>
</svg>